<?xml version="1.0" encoding="UTF-8" standalone="no"?>
<svg
   xmlns:dc="http://purl.org/dc/elements/1.1/"
   xmlns:cc="http://creativecommons.org/ns#"
   xmlns:rdf="http://www.w3.org/1999/02/22-rdf-syntax-ns#"
   xmlns:svg="http://www.w3.org/2000/svg"
   xmlns="http://www.w3.org/2000/svg"
   xmlns:sodipodi="http://sodipodi.sourceforge.net/DTD/sodipodi-0.dtd"
   xmlns:inkscape="http://www.inkscape.org/namespaces/inkscape"
   xml:space="preserve"
   viewBox="0 0 227 49.3"
   version="1.1"
   id="svg55"
   sodipodi:docname="dummy_logo.svg"
   inkscape:version="1.0.2 (e86c870, 2021-01-15)"><metadata
     id="metadata61"><rdf:RDF><cc:Work
         rdf:about=""><dc:format>image/svg+xml</dc:format><dc:type
           rdf:resource="http://purl.org/dc/dcmitype/StillImage" /><dc:title></dc:title></cc:Work></rdf:RDF></metadata><defs
     id="defs59" /><sodipodi:namedview
     pagecolor="#ffffff"
     bordercolor="#666666"
     borderopacity="1"
     objecttolerance="10"
     gridtolerance="10"
     guidetolerance="10"
     inkscape:pageopacity="0"
     inkscape:pageshadow="2"
     inkscape:window-width="1920"
     inkscape:window-height="1017"
     id="namedview57"
     showgrid="false"
     inkscape:pagecheckerboard="true"
     inkscape:zoom="3.3268284"
     inkscape:cx="63.176753"
     inkscape:cy="19.718152"
     inkscape:window-x="-8"
     inkscape:window-y="-8"
     inkscape:window-maximized="1"
     inkscape:current-layer="svg55" /><path
     d="m 67.274906,19.074906 c 0,-7 5.6,-12.7999996 12.6,-12.7999996 4.4,0 8.2,2.2 10.4,5.4999996 l -4.4,3.1 a 6.6,6.6 0 0 0 -5.8,-3.2 c -4.2,0 -7.2,3.3 -7.2,7.5 0,4.2 3,7.6 7.1,7.6 2.6,0 4.5,-1.2 5.8,-3.2 l 4.4,3.1 a 12.7,12.7 0 0 1 -10.4,5.5 13,13 0 0 1 -12.5,-13.1 z m 24.9,4.1 c 0,-5.3 4.3,-8.9 9.100004,-8.9 a 8.85,8.85 0 1 1 0,17.7 c -4.800004,0 -9.000004,-3.5 -9.000004,-8.8 z m 12.800004,0 c 0,-2.3 -1.7,-3.9 -3.7,-3.9 -2.000004,0 -3.700004,1.6 -3.700004,3.9 0,2.3 1.7,3.9 3.700004,3.9 2,0 3.7,-1.6 3.7,-3.9 z m 36,-0.6 v 9 h -5.3 v -8.9 c 0,-2.6 -1.3,-3.4 -2.7,-3.4 -1.7,0 -2.9,1.2 -2.9,4.1 v 8.2 h -5.3 v -8.8 c 0,-2.6 -1.3,-3.5 -2.6,-3.5 -1.4,0 -2.9,0.7 -2.9,3.5 v 8.8 h -5.3 v -16.8 h 5.3 v 3.3 c 0.3,-2.6 2.8,-3.7 4.5,-3.7 2.5,0 4.3,1.2 5.3,3.2 a 6.5,6.5 0 0 1 5.5,-3.2 c 4.2,0 6.4,3 6.4,8.2 z m 22.9,0.6 c 0,5.4 -4,8.9 -8.2,8.9 -1.7,0 -4,-0.7 -5.2,-2.3 v 10.2 h -5.3 v -25.2 h 5.3 v 1.8 c 1.2,-1.5 3.5,-2.2 5.2,-2.2 4.2,0 8.2,3.4 8.2,8.8 z m -5.4,0 c 0,-2.1 -1.8,-3.9 -3.9,-3.9 -2.1,0 -3.9,1.7 -3.9,3.9 0,2.2 2,3.9 4,3.9 a 4,4 0 0 0 3.8,-3.9 z m 21.3,-8.4 h 5.3 v 16.8 h -5.3 v -2.1 a 6.7,6.7 0 0 1 -5.3,2.6 c -4.7,0 -8,-3.6 -8,-8.8 0,-5.3 3.3,-8.9 8.1,-8.9 2.1,0 4.1,0.9 5.3,2.4 v -2 z m -0.2,8.4 c 0,-2.2 -1.7,-3.9 -3.9,-3.9 -2.3,0 -3.9,1.8 -3.9,3.9 0,2.1 1.6,3.9 4,3.9 2.1,0 3.8,-1.8 3.8,-3.9 z m 26.8,-0.6 v 9 h -5.3 v -8.7 c 0,-2.6 -1.6,-3.6 -2.9,-3.6 -1.4,0 -3.2,0.8 -3.2,3.6 v 8.7 h -5.3 v -16.8 h 5.3 v 3 c 0.6,-2.4 3.2,-3.5 4.8,-3.5 4.4,0.1 6.6,3.1 6.6,8.3 z m 14.5,-7.8 h 5.7 l -10.4,25.1 h -5.6 l 4.2,-10.3 -6.6,-14.8 h 6 l 3.4,8.7 z"
     id="path49"
     style="fill:#ffffff" /><path
     d="m 42.212546,10.212547 a 15.8,15.8 0 0 0 -29.4,0 13,13 0 0 0 -12.59999918,13.4 c 0.2,7 5.99999998,12.6 13.09999918,12.6 h 4 a 13,13 0 0 0 12.6,-9.6 h 1.8 c 0.6,0 1.2,-0.4 1.4,-1 0.2,-0.5 0,-1.1 -0.4,-1.5 l -5,-5.7 -5.3,5.7 c -0.4,0.4 -0.6,1 -0.4,1.6 0.2,0.6 0.8,1 1.5,0.9 h 1.8 a 8.7,8.7 0 0 1 -7.9,5.1 h -4.8 a 8.6,8.6 0 0 1 -7.7999992,-9.3 8.6,8.6 0 0 1 8.5999992,-7.8 h 2.8 l 0.4,-1.6 a 11.3,11.3 0 0 1 21.8,0 l 0.4,1.6 h 2.8 c 4.7,-0.1 8.6,3.8 8.7,8.5 0.1,4.7 -3.8,8.6 -8.5,8.7 h -4.3 c -6,0 -11.2,3.8 -12.6,9.7 -0.3,1 -0.2,1.2 -1.4,2.5 2,0.7 4,0.9 6.2,0.5 -0.8,-1.6 -0.5,-1.7 -0.2,-2.5 a 8.8,8.8 0 0 1 8,-5.8 l 5.6,-0.1 a 13,13 0 0 0 11.5,-14.4 12.7,12.7 0 0 0 -12.4,-11.5 z"
     fill="#ffffff"
     id="path51" /></svg>
