<?xml version="1.0" encoding="UTF-8" standalone="no"?><svg xmlns="http://www.w3.org/2000/svg" xml:space="preserve" viewBox="0 0 227 49.3"><path d="M67.3 19c0-7 5.6-12.7 12.6-12.7 4.4 0 8.2 2.2 10.4 5.5l-4.4 3a6.6 6.6 0 0 0-5.8-3.1c-4.2 0-7.2 3.3-7.2 7.5s3 7.6 7 7.6c2.7 0 4.6-1.2 5.9-3.2l4.4 3a12.7 12.7 0 0 1-10.4 5.6A13 13 0 0 1 67.3 19zm24.9 4.2c0-5.3 4.3-9 9-9a8.8 8.8 0 1 1 0 17.8c-4.7 0-9-3.5-9-8.8zm12.8 0c0-2.3-1.7-4-3.7-4s-3.7 1.7-3.7 4 1.7 3.9 3.7 3.9 3.7-1.6 3.7-4zm36-.6v9h-5.3v-9c0-2.5-1.3-3.3-2.7-3.3-1.7 0-3 1.2-3 4v8.3h-5.2v-8.8c0-2.6-1.3-3.5-2.6-3.5-1.4 0-3 .7-3 3.5v8.8H114V14.8h5.3V18c.3-2.6 2.8-3.7 4.5-3.7 2.5 0 4.3 1.2 5.3 3.2a6.5 6.5 0 0 1 5.5-3.2c4.2 0 6.4 3 6.4 8.2zm22.9.6c0 5.4-4 8.9-8.2 8.9-1.7 0-4-.7-5.2-2.3V40h-5.3V14.8h5.3v1.8c1.2-1.5 3.5-2.2 5.2-2.2 4.2 0 8.2 3.4 8.2 8.8zm-5.4 0a4 4 0 0 0-4-4 3.9 3.9 0 0 0-3.8 4c0 2.2 2 3.9 4 3.9a4 4 0 0 0 3.8-4zm21.3-8.4h5.3v16.8h-5.3v-2.1a6.7 6.7 0 0 1-5.3 2.6c-4.7 0-8-3.6-8-8.8 0-5.3 3.3-9 8-9 2.2 0 4.2 1 5.4 2.5v-2zm-.2 8.4c0-2.2-1.7-4-4-4a3.8 3.8 0 0 0-3.8 4c0 2 1.6 3.9 4 3.9 2 0 3.8-1.8 3.8-4zm26.8-.6v9H201v-8.7c0-2.6-1.6-3.6-3-3.6-1.3 0-3.1.8-3.1 3.6v8.7h-5.3V14.8h5.3v3c.6-2.4 3.2-3.5 4.8-3.5 4.4 0 6.6 3 6.6 8.3zm14.5-7.8h5.7l-10.4 25h-5.6l4.2-10.2-6.6-14.8h6l3.4 8.7zM42.2 10.2a15.8 15.8 0 0 0-29.4 0A13 13 0 0 0 .2 23.6c.2 7 6 12.6 13.1 12.6h4A13 13 0 0 0 30 26.6h1.8c.6 0 1.2-.4 1.4-1 .2-.5 0-1-.4-1.5l-5-5.7-5.3 5.7c-.4.4-.6 1-.4 1.6.2.6.8 1 1.5 1h1.8a8.7 8.7 0 0 1-7.9 5h-4.8a8.6 8.6 0 0 1-7.8-9.3 8.6 8.6 0 0 1 8.6-7.8h2.8l.4-1.6a11.3 11.3 0 0 1 21.8 0l.4 1.6h2.8a8.7 8.7 0 0 1 8.7 8.5 8.7 8.7 0 0 1-8.5 8.7h-4.3c-6 0-11.2 3.8-12.6 9.7-.3 1-.2 1.2-1.4 2.5 2 .7 4 1 6.2.5-.8-1.6-.5-1.7-.2-2.5a8.8 8.8 0 0 1 8-5.8h5.6a13 13 0 0 0 11.5-14.5 12.7 12.7 0 0 0-12.4-11.5z" fill="#0a4a79"/></svg>
